<svg version="1.1" viewBox="0.0 0.0 960.0 540.0" fill="none" stroke="none" stroke-linecap="square" stroke-miterlimit="10" xmlns:xlink="http://www.w3.org/1999/xlink" xmlns="http://www.w3.org/2000/svg"><clipPath id="g105f20ba353_0_57.0"><path d="m0 0l960.0 0l0 540.0l-960.0 0l0 -540.0z" clip-rule="nonzero"/></clipPath><g clip-path="url(#g105f20ba353_0_57.0)"><path fill="#1f1f1f" d="m0 0l960.0 0l0 540.0l-960.0 0z" fill-rule="evenodd"/><path fill="#e06666" d="m317.35843 351.2447c11.326202 1.0247192 23.00122 5.1454163 32.62683 13.048828l3.433838 2.398285l0 88.26764l-0.34884644 0c-10.650299 -7.903412 -23.012085 -12.710876 -35.711823 -13.397644l0 -90.31711zm81.049286 0.6867981l0 89.979126c-13.048553 0.6867981 -25.421234 5.1454163 -36.06067 13.048828l0 -87.58084l3.433838 -2.7471313c9.265869 -7.554596 20.951813 -12.013214 32.62683 -12.699982zm-89.63931 17.169495l0 76.58148c0 2.7471313 2.0603027 4.8074646 4.1206055 4.8074646c10.65033 0 21.976501 3.0959778 31.591217 8.939056l-40.519165 0c-2.7470703 0 -4.4694214 -2.0603638 -4.4694214 -4.4695435l0 -81.39984c0 -2.398285 2.0602722 -4.1206665 4.4694214 -4.458618zm105.78375 0c2.7470703 0 4.4585266 2.0603333 4.807373 4.458618l0 81.39984c0 2.4091797 -2.0603027 4.120697 -4.807373 4.4695435l-43.27716 0c8.9279785 -5.5051575 20.265045 -8.939056 31.253296 -8.939056c2.7470703 0 4.4585266 -2.0603333 4.4585266 -4.8074646l0 -76.58148zm-101.66315 -26.79535c-2.7470703 0 -4.4694214 2.0603638 -4.4694214 4.4695435l0 13.735596l-4.4585266 0c-7.5544434 0 -13.735321 5.8430786 -13.3974 13.735626l0 80.71304c0 7.2166443 5.8429565 13.397675 13.3974 13.397675l110.929016 0c7.5544434 0 13.735321 -5.8430786 13.735321 -13.397675l0 -81.39984c-0.33792114 -7.2057495 -6.1808777 -13.048828 -13.735321 -13.048828l-7.554413 0l0 -13.735596c0 -2.7471313 -2.0603027 -4.4695435 -4.4694214 -4.4695435c-14.76001 0 -30.217712 5.156311 -42.928314 15.120087l-2.0603027 1.7114868l-2.0603027 -1.7114868c-12.023865 -9.963776 -27.470642 -15.120087 -42.928314 -15.120087z" fill-rule="evenodd"/><path fill="#e06666" d="m474.1895 398.05737l24.111237 0l0 -8.818115l28.937103 17.6362l-28.937103 17.6362l0 -8.818085l-24.111237 0z" fill-rule="evenodd"/><path fill="#e06666" d="m627.1026 357.39438c-2.0109863 0 -3.6920776 1.6810913 -3.6920776 3.692047c0 1.6811218 1.6810913 3.351593 3.3515625 3.351593l22.460938 0c2.0109863 0 3.6920776 1.6811218 3.6920776 3.692047l0 6.0328674l-1.0108032 -1.3406372c-0.6702881 -0.6703186 -1.6704712 -1.0108032 -2.6386719 -1.0108032c-0.9576416 0 -1.8833008 0.34048462 -2.3833618 1.0108032c-1.3406372 1.3406372 -1.3406372 3.681427 0 5.022064l7.373474 7.7139587c1.0001831 0.6703186 1.6704712 1.0001526 2.6812744 1.0001526c0.6702881 0 2.0109253 -0.32983398 2.3407593 -1.0001526l7.7139893 -7.7139587c1.0108032 -1.3406372 1.0108032 -3.681427 0 -5.022064c-0.6703491 -0.6703186 -1.6810913 -1.0108032 -2.638733 -1.0108032c-0.9682007 0 -1.8832397 0.34048462 -2.393982 1.0108032l-1.3406372 1.3406372l0 -6.0328674c0 -6.032837 -5.0220337 -10.735687 -11.054871 -10.735687z" fill-rule="evenodd"/><path fill="#e06666" d="m589.7244 423.7664c-0.9256592 0 -1.8406982 0.3404541 -2.5109863 1.0107727l-7.7139893 7.7139587c-1.0001221 1.0001831 -1.0001221 3.681427 0 5.022064c0.6703491 0.50009155 1.6810913 0.7554321 2.638733 0.7554321c0.9682007 0 1.8938599 -0.25534058 2.393982 -0.7554321l1.3406372 -1.3406372l0 5.7030334c0.6702881 6.362671 5.692383 11.395386 11.395386 11.395386l22.120422 0c2.3514404 0 4.0219116 -1.6811218 4.0219116 -3.6920776c0 -2.0109558 -1.6704712 -3.681427 -4.0219116 -3.681427l-22.120422 0c-2.0109863 0 -3.6920776 -1.6810913 -3.6920776 -4.021881l0 -5.7030334l1.3406372 1.3406372c0.51068115 0.50009155 1.4257202 0.7554321 2.393982 0.7554321c0.95758057 0 1.9683838 -0.25534058 2.638733 -0.7554321c1.0107422 -1.3406372 1.0107422 -4.021881 0 -5.022064l-7.7139893 -7.7139587c-0.6702881 -0.6703186 -1.5853271 -1.0107727 -2.5110474 -1.0107727z" fill-rule="evenodd"/><path fill="#e06666" d="m593.5761 349.69104c6.373352 0 10.735718 5.022064 10.735718 11.065552c0 6.0328674 -5.032715 10.725067 -10.735718 10.725067c-6.362671 0 -11.054932 -5.0326843 -11.054932 -10.725067c0 -6.0434875 5.0220947 -11.065552 11.054932 -11.065552zm0 29.493958c12.076355 0 22.131104 10.054749 22.131104 22.131073l0 7.7033386l-44.251587 0l0 -7.7033386c0 -12.076324 10.054749 -22.131073 22.120483 -22.131073zm0.3404541 -36.86743c-10.054749 0 -18.439026 8.373627 -18.439026 18.439026c0 5.362549 2.6812744 10.3845825 6.373352 13.736176c-10.054749 4.69223 -17.098389 15.087463 -17.098389 27.153168l0 11.065521c-0.6703491 2.0109558 1.0108032 3.681427 3.3515625 3.681427l51.284546 0c2.3514404 0 4.0219116 -1.6704712 4.0219116 -3.681427l0 -11.065521c0 -12.065704 -7.373474 -22.120483 -17.428223 -27.153168c4.0219116 -3.351593 6.373291 -8.373627 6.373291 -13.736176c0 -10.065399 -8.384277 -18.439026 -18.439026 -18.439026z" fill-rule="evenodd"/><path fill="#e06666" d="m660.6184 401.31607c6.373352 0 10.735718 5.022064 10.735718 11.054932c0 5.703003 -5.032715 10.725067 -10.735718 10.725067c-6.362671 0 -11.054871 -5.022064 -11.054871 -10.725067c0 -6.0328674 4.6921997 -11.054932 11.054871 -11.054932zm0 29.834442c12.076355 0 22.131104 10.054749 22.131104 22.120453l0 7.703308l-44.251526 0l0 -7.703308c0 -12.065704 10.054749 -22.120453 22.120422 -22.120453zm0 -36.878082c-10.054749 0 -18.428345 8.384277 -18.428345 18.439026c0 5.362549 2.3407593 10.384613 6.032837 13.736176c-10.054749 4.702881 -17.098389 15.087463 -17.098389 26.823334l0 11.395386c0 2.0109253 1.6810913 3.692047 4.0218506 3.692047l51.284607 0c2.3513794 0 4.0218506 -1.6811218 4.0218506 -3.692047l0 -11.395386c-0.6702881 -12.065704 -7.703308 -22.120453 -17.758057 -26.823334c3.6814575 -3.3515625 6.362671 -8.373627 6.362671 -13.736176c0 -10.054749 -8.373596 -18.439026 -18.439026 -18.439026z" fill-rule="evenodd"/></g></svg>