<svg version="1.1" viewBox="0.0 0.0 960.0 540.0" fill="none" stroke="none" stroke-linecap="square" stroke-miterlimit="10" xmlns:xlink="http://www.w3.org/1999/xlink" xmlns="http://www.w3.org/2000/svg"><clipPath id="g105f20ba353_0_94.0"><path d="m0 0l960.0 0l0 540.0l-960.0 0l0 -540.0z" clip-rule="nonzero"/></clipPath><g clip-path="url(#g105f20ba353_0_94.0)"><path fill="#1f1f1f" d="m0 0l960.0 0l0 540.0l-960.0 0z" fill-rule="evenodd"/><path fill="#1f1f1f" d="m201.61417 397.30185l0 0c0 -19.33432 15.673569 -35.007874 35.007874 -35.007874l0 0c9.284668 0 18.189056 3.6882935 24.754303 10.253571c6.5652466 6.5652466 10.253571 15.469635 10.253571 24.754303l0 0c0 19.33429 -15.673553 35.007874 -35.007874 35.007874l0 0c-19.334305 0 -35.007874 -15.673584 -35.007874 -35.007874z" fill-rule="evenodd"/><path stroke="#e06666" stroke-width="8.0" stroke-linejoin="round" stroke-linecap="butt" d="m201.61417 397.30185l0 0c0 -19.33432 15.673569 -35.007874 35.007874 -35.007874l0 0c9.284668 0 18.189056 3.6882935 24.754303 10.253571c6.5652466 6.5652466 10.253571 15.469635 10.253571 24.754303l0 0c0 19.33429 -15.673553 35.007874 -35.007874 35.007874l0 0c-19.334305 0 -35.007874 -15.673584 -35.007874 -35.007874z" fill-rule="evenodd"/><path fill="#1f1f1f" d="m688.3688 397.30185l0 0c0 -19.33432 15.673523 -35.007874 35.007874 -35.007874l0 0c9.284668 0 18.189026 3.6882935 24.754272 10.253571c6.5652466 6.5652466 10.253601 15.469635 10.253601 24.754303l0 0c0 19.33429 -15.673584 35.007874 -35.007874 35.007874l0 0c-19.33435 0 -35.007874 -15.673584 -35.007874 -35.007874z" fill-rule="evenodd"/><path stroke="#e06666" stroke-width="8.0" stroke-linejoin="round" stroke-linecap="butt" d="m688.3688 397.30185l0 0c0 -19.33432 15.673523 -35.007874 35.007874 -35.007874l0 0c9.284668 0 18.189026 3.6882935 24.754272 10.253571c6.5652466 6.5652466 10.253601 15.469635 10.253601 24.754303l0 0c0 19.33429 -15.673584 35.007874 -35.007874 35.007874l0 0c-19.33435 0 -35.007874 -15.673584 -35.007874 -35.007874z" fill-rule="evenodd"/><path fill="#000000" fill-opacity="0.0" d="m271.6299 397.30185l416.7244 0" fill-rule="evenodd"/><path stroke="#e06666" stroke-width="8.0" stroke-linejoin="round" stroke-linecap="butt" stroke-dasharray="8.0,24.0" d="m271.6299 397.30185l416.7244 0" fill-rule="evenodd"/></g></svg>